<svg xmlns="http://www.w3.org/2000/svg" xmlns:xlink="http://www.w3.org/1999/xlink" viewBox="0 0 150 150"><defs><style>.cls-1{fill:#fff;}.cls-2{fill:none;stroke:#231f20;stroke-miterlimit:10;}</style></defs><title>sosabrain</title><g id="Layer_1" data-name="Layer 1"><image width="259" height="194" transform="translate(-12.49 9.47) scale(0.68)" xlink:href="../../../../../website%20assets/logobanner%20thing/download.jpg"/></g><g id="Layer_2" data-name="Layer 2"><rect class="cls-1" x="-5.02" width="164.09" height="154.98"/></g><g id="Layer_3" data-name="Layer 3"><path class="cls-2" d="M8.77,57.11c-.51-2.86-.79-7.45,1.87-10.56a18,18,0,0,1,7.49-4.93,7.82,7.82,0,0,0,3.06-1.53c1.21-1.05,1.45-2,2.21-3.24s2.06-2.12,4.6-3.91c3.32-2.34,5-3.51,7.49-3.92a27.31,27.31,0,0,0,3.23-.34c2-.46,2.85-1.16,4.94-2.21a39.49,39.49,0,0,1,5.45-2.21c4.2-1.47,5.67-1.39,6.8-1,1,.3.93.56,1.71.68,2,.33,3.23-1.26,5.44-2.38,1.74-.87,3.71-1,7.66-1.19a41.33,41.33,0,0,1,6.64.17c5.77.64,9,1,11.07,3.4,1,1.21,1.4,2.46,2.72,2.73s2.26-.93,3.74-1.19,3.46.27,6.64,4.08"/><path class="cls-2" d="M90.64,22.89a22.83,22.83,0,0,1,8.85,1,22,22,0,0,1,6.13,3.24c2.18,1.65,2.69,2.71,2.89,3.23a13.15,13.15,0,0,1,.34,3.75c.09,3.34-.13,3.48.17,4.59.47,1.74,1.15,2,1,3.07-.19,1.61-1.77,2.23-1.53,2.89s2,.11,4.09.51c2.76.52,4.62,2.4,7.31,5.11A33.94,33.94,0,0,1,123,53.87a30.18,30.18,0,0,1,4.25,6.81,16.44,16.44,0,0,1,1.71,6.3,15.9,15.9,0,0,1-2,8,25.53,25.53,0,0,1-4.08,5.62c-2.38,2.69-2.75,2.35-4.26,4.42s-1.46,2.92-3.4,5.45c-1.24,1.62-1.89,2.44-3.06,3.06a9.45,9.45,0,0,1-4.94.85,13.7,13.7,0,0,1-3.24-.51,15.58,15.58,0,0,1-2.72-1"/><path class="cls-2" d="M94.55,51.15a7.91,7.91,0,0,0,.68,3.57c.76,1.63,2,2.63,2.44,4.66a5.87,5.87,0,0,1,.12,1.13,5.7,5.7,0,0,1-.68,2.55,7.73,7.73,0,0,1-1,1.54"/><path class="cls-2" d="M81.11,48.77a15.57,15.57,0,0,1,3.4-2.22c1.69-.8,3.16-1.5,4.77-1a4.51,4.51,0,0,1,2,1.36"/><path class="cls-2" d="M60.68,48.26c-1.11.69-2.76,1.7-4.77,2.89-2.57,1.52-3.86,2.29-4.42,2.55-1,.49-2,.81-10.55,2.39-3.15.57-4.71.84-6,2.21-.81.88-.91,1.6-1.87,2.38a6.63,6.63,0,0,1-4.77,1.19"/><path class="cls-2" d="M26.81,48.22a17.47,17.47,0,0,0,8-1.27c2.1-.89,3.16-1.88,5.3-1.8,1.93.07,2.82.94,4.09.38s1.71-2.11,2.23-3.46a19,19,0,0,1,6.33-8.49,14.92,14.92,0,0,1,9.57-2.17,17.52,17.52,0,0,1,5.47,1.26"/><path class="cls-2" d="M59.83,27.83a50,50,0,0,1,7.66-.34c1,0,2,.09,2.89.17"/><path class="cls-2" d="M113.28,29.87a37.62,37.62,0,0,1,6.12,3.58,38.58,38.58,0,0,1,9.54,9.87c2,3.09,1.39,3.13,3.91,7,1.11,1.69,2,2.86,2.38,4.76a9.61,9.61,0,0,1-.34,4.77"/><path class="cls-2" d="M137.11,59.32a47.08,47.08,0,0,1,2.21,4.77,31.9,31.9,0,0,1,1.19,3.4c.17.63.7,2.68.51,7.83-.15,4.24-.23,6.37-1,8.51-.95,2.57-1.57,2.25-2.72,5.28-1.27,3.34-.79,4.45-2.05,6.46s-2.54,2.41-4.42,3.75c-4.43,3.15-4.1,5.45-7.83,9.19a24,24,0,0,1-12.26,6.64,22.78,22.78,0,0,1-13.27-1.7"/><path class="cls-2" d="M12.68,72.26A11.3,11.3,0,0,0,13,79.74c1,2.19,2.49,3.43,5.28,5.62a40.78,40.78,0,0,0,6.64,4.26,44.15,44.15,0,0,0,15.49,4.76,38,38,0,0,0,5.27.17"/><path class="cls-2" d="M42,92.34a68,68,0,0,0,5.61,6.47,74.83,74.83,0,0,0,9.54,8c3.48,2.59,5.26,3.9,7,4.25,2.85.6,3.85-.43,7.48.34,3.07.65,2.89,1.5,5.62,1.88a12,12,0,0,0,7.49-1.19,12.3,12.3,0,0,0,3.23-2.73,15,15,0,0,0,2.9-4.42c1.17-2.84.51-4,1.87-7A15.89,15.89,0,0,1,94,95.57"/><path class="cls-2" d="M84.17,94.21a14.21,14.21,0,0,0,3.23-2c.93-.77,4.07-3.41,4.43-6.81.44-4.14-3.48-7.25-2.89-7.83.27-.27,1.45.13,5.61,3.41"/><path class="cls-2" d="M75.49,81.79a2,2,0,0,1-1.87,1.53,2,2,0,0,1-1.71-2.38"/><path class="cls-2" d="M59.15,60.34a18.92,18.92,0,0,0,10,1.7c1.73-.21,5.35-.94,8.51-1.7,2.73-.66,4.66-1.22,6-.17a3.81,3.81,0,0,1,1.19,2.72"/><path class="cls-2" d="M56.09,76.85A18.16,18.16,0,0,1,50.64,75a17.53,17.53,0,0,1-2.38-1.53"/><path class="cls-2" d="M50.81,63.23A22.67,22.67,0,0,0,59,69.7a20.45,20.45,0,0,0,3.23,1.19"/><path class="cls-2" d="M67.83,71.23c4.39,3.86,8.9,4.74,10.72,3.07.33-.3,1.12-1.18,1-3.41"/><path class="cls-2" d="M62.38,96.77c3.34.88,6.61-.32,8-2.73a6.29,6.29,0,0,0,.51-4.59"/><path class="cls-2" d="M70.21,114.3a10.08,10.08,0,0,0,3.58,3.4c2.16,1.19,3.55.79,5.61,2a13.4,13.4,0,0,1,3.24,3.41c4.65,5.93,5.85,7.5,8,9.19,3,2.35,4.31,2.21,4.93,2a4.08,4.08,0,0,0,2.56-2.55c1.06-2.88-1.6-5.32-3.75-11.23A36.64,36.64,0,0,1,92.85,115"/><path class="cls-2" d="M100,68.17a7.41,7.41,0,0,1,4.26-.85c2.83.36,3.81,2.51,6.8,3.4a9.86,9.86,0,0,0,5.79-.17"/><path class="cls-2" d="M30.21,70.89a11.93,11.93,0,0,1,3.24-6,12.54,12.54,0,0,1,5.61-3.07c3.24-.85,4.57.12,7-1a8.58,8.58,0,0,0,3.41-3.06"/><path class="cls-2" d="M21.36,54.21A10,10,0,0,0,16.77,54c-4,.83-8.08,4.42-7.49,7.49a4.33,4.33,0,0,0,2,2.73"/><path class="cls-2" d="M7.23,58.3C5.37,61.73,5.53,63.82,6,65.11c.42,1,1.26,2,.85,3.06C6.55,69,5.68,68.94,5,69.7c-1.19,1.38-.34,3.91.34,6,.76,2.27,1.59,4.77,3.92,6.47,1.17.86,1.6.69,4.76,2.38,1.39.74,2.49,1.41,3.24,1.87"/><path class="cls-2" d="M15.06,73.45a8,8,0,0,0,3.75-4.77c.39-2-.56-3-.34-5.28a10.42,10.42,0,0,1,2.89-5.78,18.84,18.84,0,0,1,8.85-5.45c5.09-1.74,5.54-.25,9-2s4.47-4.05,7.49-4.26a7.77,7.77,0,0,1,4.43,1.19"/><path class="cls-2" d="M73.79,39.91a5.9,5.9,0,0,0,3.74,1.2c1.82-.14,2.38-1.27,4.77-2,1.61-.52,2.1-.24,4.76-.51a33.32,33.32,0,0,0,6.13-1.19"/><path class="cls-2" d="M134.89,71.74a7.34,7.34,0,0,1,3.58,4.09,8,8,0,0,1-.85,5.79c-1.6,3.35-3.59,3.2-4.43,6.29a21.54,21.54,0,0,0-.51,3.75c-.1,1.68,0,2.32,0,2.89-.27,4.28-10.4,8-15.32,9.36a25.25,25.25,0,0,0-6.3,2.22c-2.09,1.12-3.46,2.32-3.74,2s2.22-2.65,3.23-6.47a12.61,12.61,0,0,0,.34-4.59"/><path class="cls-2" d="M73.28,89.62a16.72,16.72,0,0,0,3.06,5.44c1.54,1.81,2.59,2.22,2.89,3.75.39,2-.88,3.87-1.36,4.59a8.71,8.71,0,0,1-2.38,2.39"/><path class="cls-2" d="M38.55,77a5.84,5.84,0,0,0,6.3-8.17"/><path class="cls-2" d="M47.91,88.43c1-3.35,2.47-4.58,3.58-5.11,3.15-1.5,6.42,1.18,8.85-.51,1.44-1,1.78-3,1.87-4.26"/><path class="cls-2" d="M43.49,36.17a5.55,5.55,0,0,0-3.23-1.36c-1.19-.05-1.89.4-3.41.85a17.14,17.14,0,0,1-4.42.68"/></g></svg>