<svg xmlns="http://www.w3.org/2000/svg" viewBox="0 0 150 150"><defs><style>.cls-1{fill:#fff;}.cls-2{fill:none;stroke:#231f20;stroke-miterlimit:10;}</style></defs><title>SosaHand</title><g id="Layer_4" data-name="Layer 4"><rect class="cls-1" x="-2.3" y="-0.94" width="160.09" height="160.09"/></g><g id="Layer_2" data-name="Layer 2"><path class="cls-2" d="M-2.3,16.09c2.82-.69,7-1.78,11.92-3.41,18.31-6,22.22-11.15,30-9.53,3.15.66,7.07,4.26,15,11.23,4,3.53,7.16,6.67,9.31,8.91"/><path class="cls-2" d="M89.62,62.72C118.5,57.5,128,53.43,130.47,50.47A18.14,18.14,0,0,1,134.89,46c3.4-2.29,5.89-2,7.15-4.42a5.59,5.59,0,0,0,.34-4.09,5.92,5.92,0,0,0-3.06-3.4c-1.57-.81-2.8-.66-5.11-.68-4.9-.06-4.77-.82-7.83-.68s-3.6.88-8.85,2.38c-5,1.42-7.47,2.13-9.53,2-3.54-.15-4.74-1.61-12.6-5.79-2.77-1.47-.78-.31-10.55-5.1-5.33-2.62-10.11-5-15.37-4.67a14.56,14.56,0,0,0-2.37.35c-2.61.62-4.32,1.87-7.79,4.53C56,29,54.85,30,54.85,30c-6.68,5.28-6.25,5-8.11,6.44-5.14,3.87-5.67,3.68-8.36,6.07a37.65,37.65,0,0,0-5.93,6.7l.19,1.1"/><path class="cls-2" d="M132.09,50.77a10.82,10.82,0,0,1,1.4,2.93,10.33,10.33,0,0,1,.38,1.87c1.22,10.82,1.83,16.23,1.87,18.89.18,11.92,6,19.59,11.07,43.41,1.13,5.31,2.29,11.72,3.19,19.07"/><path class="cls-2" d="M102.72,159.15a115.85,115.85,0,0,1-19.66-13.28c-7.53-6.3-11.61-9.72-15.57-15.83-2.6-4-3.38-6.45-6.89-9.7-5.2-4.8-7.39-3-11-7.15-2.73-3.11-1.8-4.49-6.9-15.32-1.27-2.71-1.91-4.07-2.84-5.67a68.31,68.31,0,0,0-9.92-13c-3.77-3.86-7.46-6.76-6.64-8.93.29-.78,1.2-1.54,1.28-3.07a5.45,5.45,0,0,0-.51-2.29,21.93,21.93,0,0,1-1.28-6.13A9.42,9.42,0,0,1,23.57,54c.26-.54,1.81-3.73,4.6-4.09a4.24,4.24,0,0,1,1,0c4.82.49,10.29,1.05,13.59,4.85,1.19,1.37.86,1.73,3.32,5.11,1,1.43,2.23,2.91,2.56,3.32,1.42,1.77,1.71,2,2.18,2.63,2.15,2.83,1.27,4.61,2.67,7.33,1.27,2.48,3.37,3.65,7.07,5.7a69.31,69.31,0,0,0,7.74,3c3.75,1.33,4.84,1.6,5.61,1,1.13-.85.18-2.45,1-5.11.52-1.63,1.22-2.11,4.6-5.87,4.6-5.12,4.78-5.86,4.85-6.38.37-2.89-2-6.27-4.85-7.41"/><path class="cls-2" d="M38.38,94a18.76,18.76,0,0,1-.76,5.62c-.76,2.56-1.57,3.22-1.28,4.6.45,2.14,3.19,4.14,5.87,3.83A5.33,5.33,0,0,0,45,106.81"/><path class="cls-2" d="M42,112.68c-.52,2.89,0,4.21.76,4.85,0,0,.66.59,5.11,1h0"/><path class="cls-2" d="M47.32,122.13a11.76,11.76,0,0,0,9.45,1"/><path class="cls-2" d="M29.7,83.83a6.92,6.92,0,0,0,2.81,3.83,6.69,6.69,0,0,0,3.06,1"/><path class="cls-2" d="M44.32,55.94c2.11-.68,5.16-1.6,8.94-2.56,1.27-.32,2.25-.55,3.08-.75,5-1.17,8.24-1.8,10.38-2.25,2.59-.54,5.67-1.39,11.82-3.1,3.61-1,8.17-2.26,14-4.05,5.38-1.65,12.17-3.86,20-6.7"/><path class="cls-2" d="M65.7,36.6a11.94,11.94,0,0,0,1.53,6.63,12.25,12.25,0,0,0,6.59,5.36"/></g></svg>