<svg xmlns="http://www.w3.org/2000/svg" viewBox="0 0 57 57.23"><defs><style>.cls-1{isolation:isolate;}.cls-2,.cls-3{fill:#fff;stroke:#231f20;stroke-width:3px;}.cls-2,.cls-3,.cls-4{stroke-miterlimit:10;}.cls-3{mix-blend-mode:multiply;}.cls-4{fill:none;stroke:#000;}.cls-5{font-size:18px;}.cls-5,.cls-6{font-family:Coquette;}.cls-6{font-size:15px;}</style></defs><title>sosaanimationstudioslogo</title><g class="cls-1"><g id="Layer_1" data-name="Layer 1"><path class="cls-2" d="M27.74,1.75A27,27,0,0,0,1.5,28.8c0,.33,0,.67,0,1a.89.89,0,0,0,0,.23,4.36,4.36,0,0,0,0,.51h0a.06.06,0,0,0,0,.06c0,.32,0,.63.08.94s.08.76.14,1.14.16,1,.26,1.46q.06.33.15.66a0,0,0,0,0,0,0,.08.08,0,0,0,0,.07.24.24,0,0,0,0,.08s0,0,0,0a4.05,4.05,0,0,0,.12.5c.08.32.16.62.26.93a.75.75,0,0,0,.05.16c0,.15.09.29.14.44q.3,1,.69,1.89c.09.23.18.45.28.67l.3.66c.08.17.16.34.25.5A25.62,25.62,0,0,0,6,43.66c.11.16.22.33.34.49s.26.38.4.56.18.25.28.37c.2.27.41.54.63.8l0,0,0,.07c.2.24.41.49.63.73s.57.62.86.92.46.46.7.68q.59.57,1.2,1.08l.48.39a5.31,5.31,0,0,0,.48.38l.7.52c.17.13.33.24.5.35l.23.16c.24.17.49.33.74.48s.42.26.64.38c.51.31,1,.59,1.57.85.33.17.67.33,1,.48l.71.31.71.28c.36.14.73.27,1.1.39l.4.13a2.77,2.77,0,0,0,.41.12h.08l.07,0c.27.09.55.16.83.23.48.13,1,.24,1.46.33l.15,0,.61.11h0a5.07,5.07,0,0,0,.54.09,4.86,4.86,0,0,0,.55.07,26.39,26.39,0,0,0,2.69.2l.69,0h.07l.69,0a27,27,0,0,0-.76-54h-.07Z"/><path class="cls-3" d="M27.74,1.75A27,27,0,0,0,1.5,28.8c0,.33,0,.67,0,1a.89.89,0,0,0,0,.23,4.36,4.36,0,0,0,0,.51h0a.06.06,0,0,0,0,.06c0,.32,0,.63.08.94s.08.76.14,1.14.16,1,.26,1.46q.06.33.15.66a0,0,0,0,0,0,0,.08.08,0,0,0,0,.07.24.24,0,0,0,0,.08s0,0,0,0a4.05,4.05,0,0,0,.12.5c.08.32.16.62.26.93a.75.75,0,0,0,.05.16c0,.15.09.29.14.44q.3,1,.69,1.89c.09.23.18.45.28.67l.3.66c.08.17.16.34.25.5A25.62,25.62,0,0,0,6,43.66c.11.16.22.33.34.49s.26.38.4.56.18.25.28.37c.2.27.41.54.63.8l0,0,0,.07c.2.24.41.49.63.73s.57.62.86.92.46.46.7.68q.59.57,1.2,1.08l.48.39a5.31,5.31,0,0,0,.48.38l.7.52c.17.13.33.24.5.35l.23.16c.24.17.49.33.74.48s.42.26.64.38c.51.31,1,.59,1.57.85.33.17.67.33,1,.48l.71.31.71.28c.36.14.73.27,1.1.39l.4.13a2.77,2.77,0,0,0,.41.12h.08l.07,0c.27.09.55.16.83.23.48.13,1,.24,1.46.33l.15,0,.61.11h0a5.07,5.07,0,0,0,.54.09,4.86,4.86,0,0,0,.55.07,26.39,26.39,0,0,0,2.69.2l.69,0h.07l.69,0a27,27,0,0,0-.76-54h-.07Z"/><path class="cls-4" d="M27.74,1.75A27,27,0,0,0,1.5,28.8c0,.33,0,.67,0,1a.89.89,0,0,0,0,.23,4.36,4.36,0,0,0,0,.51h0a.06.06,0,0,0,0,.06c0,.32,0,.63.08.94s.08.76.14,1.14.16,1,.26,1.46q.06.33.15.66a0,0,0,0,0,0,0,.08.08,0,0,0,0,.07.24.24,0,0,0,0,.08s0,0,0,0a4.05,4.05,0,0,0,.12.5c.08.32.16.62.26.93a.75.75,0,0,0,.05.16c0,.15.09.29.14.44q.3,1,.69,1.89c.09.23.18.45.28.67l.3.66c.08.17.16.34.25.5A25.62,25.62,0,0,0,6,43.66c.11.16.22.33.34.49s.26.38.4.56.18.25.28.37c.2.27.41.54.63.8l0,0,0,.07c.2.24.41.49.63.73s.57.62.86.92.46.46.7.68q.59.57,1.2,1.08l.48.39a5.31,5.31,0,0,0,.48.38l.7.52c.17.13.33.24.5.35l.23.16c.24.17.49.33.74.48s.42.26.64.38c.51.31,1,.59,1.57.85.33.17.67.33,1,.48l.71.31.71.28c.36.14.73.27,1.1.39l.4.13a2.77,2.77,0,0,0,.41.12h.08l.07,0c.27.09.55.16.83.23.48.13,1,.24,1.46.33l.15,0,.61.11h0a5.07,5.07,0,0,0,.54.09,4.86,4.86,0,0,0,.55.07,26.39,26.39,0,0,0,2.69.2l.69,0h.07l.69,0a27,27,0,0,0-.76-54h-.07Z"/><line class="cls-4" x1="1.5" y1="28.8" x2="55.5" y2="28.65"/><line class="cls-4" x1="28.43" y1="1.72" x2="28.5" y2="28.72"/><path class="cls-4" d="M28.43,1.73h.07a13.5,13.5,0,0,1,0,27h-.08a13.5,13.5,0,0,1-.72-27Z"/><path class="cls-4" d="M28.46,28.73h.08a13.5,13.5,0,0,1,.72,27l-.69,0H28.5a13.5,13.5,0,0,1,0-27Z"/><path class="cls-4" d="M28.43,1.73h.07a27,27,0,0,1,.76,54l-.69,0H28.5a27,27,0,0,1-.76-54Z"/><line class="cls-4" x1="1.5" y1="28.8" x2="55.5" y2="28.65"/><line class="cls-4" x1="28.43" y1="1.72" x2="28.5" y2="28.72"/><path class="cls-4" d="M28.46,28.73h.08a13.5,13.5,0,0,1,.72,27l-.69,0H28.5a13.5,13.5,0,0,1,0-27Z"/><path d="M19,55l0-6.78a10.8,10.8,0,0,0,7.2,2.94c4.11,0,7.42-2.74,7.41-7,0-12.39-21.92-13.58-22-29.09C11.61,5.34,19.81,0,29.05,0c8.14,0,16.29,5.1,16.31,13.75,0,4.67-2.66,8.34-6.84,10.46l-3.8-4c2.52-1.34,4.41-3.21,4.4-6.33,0-5.53-4.84-8.48-10-8.47-5.77,0-11.29,3.38-11.27,9.7,0,11.68,21.76,13.73,21.8,29.08,0,7.79-5.81,12.64-13.4,12.66A13,13,0,0,1,19,55Z"/><text class="cls-5" transform="translate(28.89 20.04) rotate(-0.15)">o</text><text class="cls-6" transform="translate(19.38 45.86) rotate(-0.15)">a</text></g></g></svg>