<svg xmlns="http://www.w3.org/2000/svg" xmlns:xlink="http://www.w3.org/1999/xlink" viewBox="0 0 612 161.36"><defs><style>.cls-1,.cls-13,.cls-15,.cls-16,.cls-19,.cls-21,.cls-8{fill:none;}.cls-2{isolation:isolate;}.cls-3{fill:#a6dde8;}.cls-4{clip-path:url(#clip-path);}.cls-5{mix-blend-mode:multiply;}.cls-6{clip-path:url(#clip-path-2);}.cls-7{fill:#f89b36;}.cls-19,.cls-8{stroke:#231f20;}.cls-13,.cls-15,.cls-16,.cls-19,.cls-21,.cls-8{stroke-miterlimit:10;}.cls-13,.cls-15,.cls-16,.cls-8{stroke-width:3px;}.cls-9{fill:#35286e;}.cls-10{fill:#34833f;}.cls-11{fill:#56c2ef;}.cls-12{fill:#a0d39e;}.cls-13{stroke:#e9255e;}.cls-14{fill:#f6b1cf;}.cls-15{stroke:#9155a2;}.cls-16{stroke:#000;}.cls-17{font-size:12px;fill:#231f20;font-family:MyriadPro-Regular, Myriad Pro;}.cls-18{fill:#b1dcc2;}.cls-20{fill:#fff;}.cls-21{stroke:#010101;}.cls-22,.cls-25,.cls-28{fill:#010101;}.cls-23{clip-path:url(#clip-path-11);}.cls-24{clip-path:url(#clip-path-12);}.cls-25{font-size:18px;}.cls-25,.cls-28{font-family:Coquette;}.cls-26{clip-path:url(#clip-path-13);}.cls-27{clip-path:url(#clip-path-14);}.cls-28{font-size:15px;}.cls-29{clip-path:url(#clip-path-15);}.cls-30{clip-path:url(#clip-path-16);}.cls-31{clip-path:url(#clip-path-17);}.cls-32{clip-path:url(#clip-path-18);}</style><clipPath id="clip-path"><rect class="cls-1" y="1.38" width="612" height="159.15"/></clipPath><clipPath id="clip-path-2"><rect class="cls-1" x="-2.12" y="-227.66" width="616.24" height="616.26"/></clipPath><clipPath id="clip-path-11"><rect class="cls-1" x="196" y="55.6" width="8.55" height="20.2"/></clipPath><clipPath id="clip-path-12"><rect class="cls-1" x="196" y="55.6" width="8.55" height="20.2"/></clipPath><clipPath id="clip-path-13"><rect class="cls-1" x="186.49" y="83.99" width="7.98" height="16.84"/></clipPath><clipPath id="clip-path-14"><rect class="cls-1" x="186.49" y="83.99" width="7.98" height="16.83"/></clipPath><clipPath id="clip-path-15"><rect class="cls-1" x="415.26" y="55.6" width="8.55" height="20.2"/></clipPath><clipPath id="clip-path-16"><rect class="cls-1" x="415.26" y="55.6" width="8.55" height="20.2"/></clipPath><clipPath id="clip-path-17"><rect class="cls-1" x="405.76" y="83.99" width="7.98" height="16.84"/></clipPath><clipPath id="clip-path-18"><rect class="cls-1" x="405.76" y="83.99" width="7.98" height="16.83"/></clipPath></defs><title>stetchlogo</title><g class="cls-2"><g id="Layer_1" data-name="Layer 1"><polygon class="cls-3" points="76.21 1.38 78 3.11 78 1.38 76.21 1.38"/><g class="cls-4"><g class="cls-5"><g class="cls-6"><polygon class="cls-7" points="612 -71.89 612 81.11 534 3.11 612 -71.89"/><g class="cls-6"><polygon class="cls-8" points="612 -71.89 612 81.11 534 3.11 612 -71.89"/></g><polygon class="cls-7" points="612 81.11 612 234.11 534 159.11 612 81.11"/><g class="cls-6"><polygon class="cls-8" points="612 81.11 612 234.11 534 159.11 612 81.11"/></g><polygon class="cls-7" points="0 234.11 78 159.11 0 81.11 0 234.11"/><g class="cls-6"><polygon class="cls-8" points="78 159.11 0 234.11 0 81.11 78 159.11"/></g><polygon class="cls-7" points="0 81.11 78 3.11 0 -71.89 0 81.11"/><g class="cls-6"><polygon class="cls-8" points="78 3.11 0 81.11 0 -71.89 78 3.11"/></g><polygon class="cls-9" points="153 234.11 228 309.11 78 309.11 78 159.11 228 159.11 153 234.11"/><polygon class="cls-8" points="153 234.11 228 309.11 78 309.11 78 159.11 228 159.11 153 234.11"/><g class="cls-6"><path class="cls-10" d="M153-71.89l75,75v-150Zm71.25-.53a27,27,0,0,1-26.93,27,27,27,0,0,1-27-26.24c0-.23,0-.46,0-.69v-.07c0-.23,0-.46,0-.69,0-.4,0-.81,0-1.21s.08-1,.15-1.48a4.86,4.86,0,0,1,.07-.55,5.07,5.07,0,0,1,.09-.54,0,0,0,0,1,0,0c0-.21.07-.41.11-.61a.8.8,0,0,1,0-.15,3.15,3.15,0,0,1,.09-.42c.07-.35.15-.7.24-1s.14-.56.23-.83a.29.29,0,0,1,0-.09s0,0,0,0h0s0,0,0,0h0a2.77,2.77,0,0,1,.12-.41c0-.14.08-.27.13-.4.12-.37.25-.74.39-1.1s.18-.48.28-.71.2-.48.31-.71.31-.68.48-1c.26-.53.54-1.06.85-1.57.12-.22.25-.43.38-.64s.31-.5.48-.74l.36-.52a1.37,1.37,0,0,1,.15-.21c.16-.23.33-.47.52-.7a5.31,5.31,0,0,1,.38-.48q.18-.24.39-.48.51-.61,1.08-1.2a3.61,3.61,0,0,1,.33-.35c.11-.12.23-.23.35-.35s.3-.3.46-.44l.46-.42s0,0,0,0l.41-.35.29-.25.14-.11.27-.22.48-.37.37-.28a.16.16,0,0,1,.08-.06l.32-.23.16-.11.49-.34a25.62,25.62,0,0,1,2.88-1.66l.5-.25.66-.3c.22-.1.44-.2.67-.28q.93-.39,1.89-.69a3.22,3.22,0,0,1,.44-.14l.16-.05c.31-.1.61-.18.93-.26.16,0,.33-.09.5-.12a.58.58,0,0,1,.18,0,0,0,0,0,1,0,0q.33-.09.66-.15c.48-.1,1-.19,1.46-.26s.75-.1,1.14-.14.62-.06.94-.08a.06.06,0,0,1,.06,0h0a4.36,4.36,0,0,1,.51,0,.89.89,0,0,1,.23,0c.33,0,.67,0,1,0a27,27,0,0,1,27,26.24c0,.23,0,.46,0,.69Z"/><path class="cls-8" d="M153-71.89l75,75v-150Zm71.25-.53a27,27,0,0,1-26.93,27,27,27,0,0,1-27-26.24c0-.23,0-.46,0-.69v-.07c0-.23,0-.46,0-.69,0-.4,0-.81,0-1.21s.08-1,.15-1.48a4.86,4.86,0,0,1,.07-.55,5.07,5.07,0,0,1,.09-.54,0,0,0,0,1,0,0c0-.21.07-.41.11-.61a.8.8,0,0,1,0-.15,3.15,3.15,0,0,1,.09-.42c.07-.35.15-.7.24-1s.14-.56.23-.83a.29.29,0,0,1,0-.09s0,0,0,0h0s0,0,0,0h0a2.77,2.77,0,0,1,.12-.41c0-.14.08-.27.13-.4.12-.37.25-.74.39-1.1s.18-.48.28-.71.2-.48.31-.71.31-.68.48-1c.26-.53.54-1.06.85-1.57.12-.22.25-.43.38-.64s.31-.5.48-.74l.36-.52a1.37,1.37,0,0,1,.15-.21c.16-.23.33-.47.52-.7a5.31,5.31,0,0,1,.38-.48q.18-.24.39-.48.51-.61,1.08-1.2a3.61,3.61,0,0,1,.33-.35c.11-.12.23-.23.35-.35s.3-.3.46-.44l.46-.42s0,0,0,0l.41-.35.29-.25.14-.11.27-.22.48-.37.37-.28a.16.16,0,0,1,.08-.06l.32-.23.16-.11.49-.34a25.62,25.62,0,0,1,2.88-1.66l.5-.25.66-.3c.22-.1.44-.2.67-.28q.93-.39,1.89-.69a3.22,3.22,0,0,1,.44-.14l.16-.05c.31-.1.61-.18.93-.26.16,0,.33-.09.5-.12a.58.58,0,0,1,.18,0,0,0,0,0,1,0,0q.33-.09.66-.15c.48-.1,1-.19,1.46-.26s.75-.1,1.14-.14.62-.06.94-.08a.06.06,0,0,1,.06,0h0a4.36,4.36,0,0,1,.51,0,.89.89,0,0,1,.23,0c.33,0,.67,0,1,0a27,27,0,0,1,27,26.24c0,.23,0,.46,0,.69Z"/><polygon class="cls-11" points="384 -146.89 384 3.11 306 81.11 228 3.11 228 -146.89 306 -224.89 384 -146.89"/><polygon class="cls-9" points="153 -71.89 228 3.11 78 3.11 78 -146.89 228 -146.89 153 -71.89"/><polygon class="cls-8" points="153 -71.89 228 3.11 78 3.11 78 -146.89 228 -146.89 153 -71.89"/><polygon class="cls-11" points="384 159.11 384 309.11 306 387.11 228 309.11 228 159.11 306 81.11 384 159.11"/><polygon class="cls-12" points="612 -226.14 612 -71.89 534 3.11 534 -146.89 384 -146.89 459 -224.89 612 -226.14"/><polygon class="cls-13" points="612 -226.14 612 -71.89 534 3.11 534 -146.89 384 -146.89 459 -224.89 612 -226.14"/><polygon class="cls-14" points="306 81.11 228 159.11 78 159.11 0 81.11 78 3.11 228 3.11 306 81.11"/><polygon class="cls-15" points="306 81.11 228 159.11 78 159.11 0 81.11 78 3.11 228 3.11 306 81.11"/><path class="cls-10" d="M384-146.89v150l75-75ZM414.58-46.27a27,27,0,0,1-27.05-26.24c0-.23,0-.46,0-.69v-.07c0-.23,0-.46,0-.69,0-.4,0-.81.05-1.21s.08-1,.15-1.48a0,0,0,0,1,0,0c0-.36.09-.72.16-1.07a5.4,5.4,0,0,1,.1-.58.28.28,0,0,1,0-.13,3.37,3.37,0,0,1,.12-.55.11.11,0,0,1,0-.08,3.13,3.13,0,0,1,.1-.44.27.27,0,0,1,0-.12s0,0,0,0a3.82,3.82,0,0,1,.14-.56.45.45,0,0,1,.05-.19c0-.15.08-.3.12-.45a.65.65,0,0,0,0-.13s0,0,0,0a2.91,2.91,0,0,1,.12-.39.66.66,0,0,1,.06-.2c.08-.27.18-.53.27-.8a24.27,24.27,0,0,1,1-2.3c0-.09.08-.18.13-.27a3.18,3.18,0,0,1,.16-.32c.12-.26.26-.52.4-.78l.38-.67a.27.27,0,0,1,.06-.1c.11-.2.23-.39.35-.59.36-.59.75-1.16,1.16-1.72l.36-.48.37-.47c.14-.18.28-.35.43-.52a19.22,19.22,0,0,1,1.36-1.49,4.31,4.31,0,0,1,.37-.37,23.49,23.49,0,0,1,2.68-2.31l.25-.19c.27-.21.54-.4.83-.59l0,0c.35-.24.71-.46,1.07-.68s.46-.28.7-.41l.6-.34a21.25,21.25,0,0,1,1.92-.93,5.39,5.39,0,0,1,.6-.25.09.09,0,0,1,.07,0l.2-.08a1.66,1.66,0,0,1,.31-.12c.27-.11.55-.21.83-.3s.6-.21.91-.3l.16,0c.31-.1.62-.18.93-.26s.44-.12.67-.16a.07.07,0,0,1,.06,0c.27-.07.53-.13.8-.18s.59-.12.88-.16l.32,0q.45-.08.9-.12a0,0,0,0,1,.05,0l.49-.06H412a1.32,1.32,0,0,1,.28,0,4.38,4.38,0,0,1,.51,0c.21,0,.43,0,.64,0s.66,0,1,0A27,27,0,0,1,441.49-74c0,.23,0,.46,0,.69v.07a27,27,0,0,1-26.93,27"/><path class="cls-16" d="M384-146.89v150l75-75ZM414.58-46.27a27,27,0,0,1-27.05-26.24c0-.23,0-.46,0-.69v-.07c0-.23,0-.46,0-.69,0-.4,0-.81.05-1.21s.08-1,.15-1.48a0,0,0,0,1,0,0c0-.36.09-.72.16-1.07a5.4,5.4,0,0,1,.1-.58.28.28,0,0,1,0-.13,3.37,3.37,0,0,1,.12-.55.11.11,0,0,1,0-.08,3.13,3.13,0,0,1,.1-.44.27.27,0,0,1,0-.12s0,0,0,0a3.82,3.82,0,0,1,.14-.56.45.45,0,0,1,.05-.19c0-.15.08-.3.12-.45a.65.65,0,0,0,0-.13s0,0,0,0a2.91,2.91,0,0,1,.12-.39.66.66,0,0,1,.06-.2c.08-.27.18-.53.27-.8a24.27,24.27,0,0,1,1-2.3c0-.09.08-.18.13-.27a3.18,3.18,0,0,1,.16-.32c.12-.26.26-.52.4-.78l.38-.67a.27.27,0,0,1,.06-.1c.11-.2.23-.39.35-.59.36-.59.75-1.16,1.16-1.72l.36-.48.37-.47c.14-.18.28-.35.43-.52a19.22,19.22,0,0,1,1.36-1.49,4.31,4.31,0,0,1,.37-.37,23.49,23.49,0,0,1,2.68-2.31l.25-.19c.27-.21.54-.4.83-.59l0,0c.35-.24.71-.46,1.07-.68s.46-.28.7-.41l.6-.34a21.25,21.25,0,0,1,1.92-.93,5.39,5.39,0,0,1,.6-.25.09.09,0,0,1,.07,0l.2-.08a1.66,1.66,0,0,1,.31-.12c.27-.11.55-.21.83-.3s.6-.21.91-.3l.16,0c.31-.1.62-.18.93-.26s.44-.12.67-.16a.07.07,0,0,1,.06,0c.27-.07.53-.13.8-.18s.59-.12.88-.16l.32,0q.45-.08.9-.12a0,0,0,0,1,.05,0l.49-.06H412a1.32,1.32,0,0,1,.28,0,4.38,4.38,0,0,1,.51,0c.21,0,.43,0,.64,0s.66,0,1,0A27,27,0,0,1,441.49-74c0,.23,0,.46,0,.69v.07A27,27,0,0,1,414.58-46.27Z"/><polygon class="cls-9" points="534 -146.89 534 3.11 384 3.11 459 -71.89 384 -146.89 534 -146.89"/><polygon class="cls-13" points="534 -146.89 534 3.11 384 3.11 459 -71.89 384 -146.89 534 -146.89"/><polygon class="cls-9" points="534 159.11 534 309.11 384 309.11 459 234.11 384 159.11 534 159.11"/><polygon class="cls-15" points="534 159.11 534 309.11 384 309.11 459 234.11 384 159.11 534 159.11"/><polygon class="cls-14" points="612 80.96 534 158.96 384 158.96 306 80.96 384 2.96 534 2.96 612 80.96"/><polygon class="cls-15" points="612 81.11 534 159.11 384 159.11 306 81.11 384 3.11 534 3.11 612 81.11"/></g><text class="cls-17" transform="translate(108.12 39.63)">A</text><text class="cls-17" transform="translate(115.43 39.63)">r</text><text class="cls-17" transform="translate(119.64 39.63)">t </text><text class="cls-17" transform="translate(89.59 54.03)">A</text><text class="cls-17" transform="translate(96.9 54.03)">nim</text><text class="cls-17" transform="translate(116.38 54.03)">a</text><text class="cls-17" transform="translate(122.12 54.03)">tion</text><text class="cls-17" transform="translate(94.36 68.43)">T</text><text class="cls-17" transform="translate(100.25 68.43)">houg</text><text class="cls-17" transform="translate(126.82 68.43)">h</text><text class="cls-17" transform="translate(133.43 68.43)">t</text><text class="cls-17" transform="translate(86.21 94.63)">Just do </text><text class="cls-17" transform="translate(124.43 94.63)">y</text><text class="cls-17" transform="translate(129.97 94.63)">o</text><text class="cls-17" transform="translate(136.56 94.63)">u</text><text class="cls-17" transform="translate(143.09 94.63)">.</text><text class="cls-17" transform="translate(71.35 109.03)">I</text><text class="cls-17" transform="translate(74.34 109.03)">f the oppo</text><text class="cls-17" transform="translate(126.41 109.03)">r</text><text class="cls-17" transform="translate(130.62 109.03)">tuni</text><text class="cls-17" transform="translate(150.67 109.03)">t</text><text class="cls-17" transform="translate(154.74 109.03)">y </text><text class="cls-17" transform="translate(91.78 123.43)">a</text><text class="cls-17" transform="translate(97.56 123.43)">r</text><text class="cls-17" transform="translate(101.53 123.43)">ises lets </text><text class="cls-17" transform="translate(86.57 137.83)">c</text><text class="cls-17" transform="translate(91.88 137.83)">ollabo</text><text class="cls-17" transform="translate(123.34 137.83)">r</text><text class="cls-17" transform="translate(127.2 137.83)">a</text><text class="cls-17" transform="translate(132.95 137.83)">t</text><text class="cls-17" transform="translate(136.86 137.83)">e</text><text class="cls-17" transform="translate(142.74 137.83)">.</text></g></g><path class="cls-9" d="M386,6.11v150l75-75Zm30.82,101a27,27,0,0,1-27.05-26.24c0-.23,0-.46,0-.69v-.07c0-.23,0-.46,0-.69s0-.41,0-.61l0-.51c0-.53.08-1,.16-1.57a0,0,0,0,1,0,0c0-.29.07-.58.12-.86a1.06,1.06,0,0,1,0-.19.13.13,0,0,1,0-.06,1.57,1.57,0,0,1,.05-.3c0-.2.07-.4.11-.6s.05-.25.08-.37c.06-.28.12-.55.19-.82a3.45,3.45,0,0,1,.12-.43,4.24,4.24,0,0,1,.17-.61.06.06,0,0,1,0-.05L391,72c0-.14.08-.27.13-.4.12-.37.25-.74.39-1.1s.19-.5.29-.74.1-.25.16-.37a4.54,4.54,0,0,1,.21-.45,1.59,1.59,0,0,1,.12-.27.59.59,0,0,1,.06-.14c.05-.1.09-.2.14-.29q.19-.4.42-.81a1.19,1.19,0,0,1,.08-.16c.16-.3.32-.59.5-.88l.17-.29.07-.12c.34-.54.69-1.08,1.07-1.59.17-.24.34-.47.52-.7l.35-.45.35-.43,0-.05c.22-.26.44-.52.67-.76s.46-.51.71-.75.27-.28.41-.41a1.7,1.7,0,0,1,.24-.23,1.45,1.45,0,0,1,.22-.21,21.68,21.68,0,0,1,2.15-1.81l.3-.23q.42-.31.84-.6c.36-.24.73-.48,1.1-.7a2.5,2.5,0,0,1,.35-.21,1,1,0,0,1,.17-.1,1.19,1.19,0,0,1,.22-.12l.63-.35q1-.53,2-1l.26-.11.74-.29a.9.9,0,0,1,.21-.08,4.18,4.18,0,0,1,.56-.2.34.34,0,0,1,.14,0l.45-.15.44-.14c.35-.12.72-.22,1.09-.31a4.54,4.54,0,0,1,.5-.12h0l.09,0a.08.08,0,0,1,.07,0,0,0,0,0,1,0,0q.33-.09.66-.15l.41-.08.56-.1.19,0,.13,0a21.75,21.75,0,0,1,2.43-.26c.21,0,.43,0,.64,0l1,0a27,27,0,0,1,27.05,26.24c0,.23,0,.46,0,.69v.07a27,27,0,0,1-26.93,27"/><path class="cls-8" d="M386,6.11v150l75-75Zm30.82,101a27,27,0,0,1-27.05-26.24c0-.23,0-.46,0-.69v-.07c0-.23,0-.46,0-.69s0-.41,0-.61l0-.51c0-.53.08-1,.16-1.57a0,0,0,0,1,0,0c0-.29.07-.58.12-.86a1.06,1.06,0,0,1,0-.19.13.13,0,0,1,0-.06,1.57,1.57,0,0,1,.05-.3c0-.2.07-.4.11-.6s.05-.25.08-.37c.06-.28.12-.55.19-.82a3.45,3.45,0,0,1,.12-.43,4.24,4.24,0,0,1,.17-.61.06.06,0,0,1,0-.05L391,72c0-.14.08-.27.13-.4.12-.37.25-.74.39-1.1s.19-.5.29-.74.1-.25.16-.37a4.54,4.54,0,0,1,.21-.45,1.59,1.59,0,0,1,.12-.27.59.59,0,0,1,.06-.14c.05-.1.09-.2.14-.29q.19-.4.42-.81a1.19,1.19,0,0,1,.08-.16c.16-.3.32-.59.5-.88l.17-.29.07-.12c.34-.54.69-1.08,1.07-1.59.17-.24.34-.47.52-.7l.35-.45.35-.43,0-.05c.22-.26.44-.52.67-.76s.46-.51.71-.75.27-.28.41-.41a1.7,1.7,0,0,1,.24-.23,1.45,1.45,0,0,1,.22-.21,21.68,21.68,0,0,1,2.15-1.81l.3-.23q.42-.31.84-.6c.36-.24.73-.48,1.1-.7a2.5,2.5,0,0,1,.35-.21,1,1,0,0,1,.17-.1,1.19,1.19,0,0,1,.22-.12l.63-.35q1-.53,2-1l.26-.11.74-.29a.9.9,0,0,1,.21-.08,4.18,4.18,0,0,1,.56-.2.34.34,0,0,1,.14,0l.45-.15.44-.14c.35-.12.72-.22,1.09-.31a4.54,4.54,0,0,1,.5-.12h0l.09,0a.08.08,0,0,1,.07,0,0,0,0,0,1,0,0q.33-.09.66-.15l.41-.08.56-.1.19,0,.13,0a21.75,21.75,0,0,1,2.43-.26c.21,0,.43,0,.64,0l1,0a27,27,0,0,1,27.05,26.24c0,.23,0,.46,0,.69v.07A27,27,0,0,1,416.82,107.09Z"/><path class="cls-10" d="M151.5,81.09l75,75V6.09Zm17.25-1V80c0-.23,0-.46,0-.69a27,27,0,0,1,27-26.24q.5,0,1,0c.21,0,.43,0,.64,0a21.75,21.75,0,0,1,2.43.26l.13,0,.19,0,.56.1.41.08q.33.06.66.15a0,0,0,0,1,0,0,.08.08,0,0,1,.07,0l.09,0h0a4.54,4.54,0,0,1,.5.12c.37.09.74.19,1.09.31l.44.14.45.15a.34.34,0,0,1,.14.05,4.18,4.18,0,0,1,.56.2.9.9,0,0,1,.21.08l.74.29.26.11q1,.43,2,1l.63.35a1.19,1.19,0,0,1,.22.12,1,1,0,0,1,.17.1,2.5,2.5,0,0,1,.35.21c.37.22.74.46,1.1.7s.56.39.84.6l.3.23a21.68,21.68,0,0,1,2.15,1.81,1.45,1.45,0,0,1,.22.21,1.7,1.7,0,0,1,.24.23c.14.13.28.27.41.41s.48.49.71.75.45.5.67.76l0,0,.35.43.35.45c.18.23.35.46.52.7.38.51.73,1,1.07,1.59l.07.12.17.29c.18.29.34.58.5.88l.08.16q.22.41.42.81c.05.09.09.19.14.29a.59.59,0,0,1,.06.14,1.59,1.59,0,0,1,.12.27,4.54,4.54,0,0,1,.21.45c.06.12.11.24.16.37s.2.49.29.74.27.73.39,1.1c0,.13.09.26.13.4l.12.41a.06.06,0,0,1,0,0,4.24,4.24,0,0,1,.17.61,3.45,3.45,0,0,1,.12.43c.07.27.13.54.19.82,0,.12.06.24.08.37s.08.4.11.6a1.57,1.57,0,0,1,.05.3.13.13,0,0,1,0,.06,1.06,1.06,0,0,1,0,.19c.05.28.09.57.12.86a0,0,0,0,1,0,0c.08.52.13,1,.16,1.57l0,.51c0,.2,0,.41,0,.61s0,.46,0,.69v.07c0,.23,0,.46,0,.69a27,27,0,0,1-54-.76"/><path class="cls-8" d="M151.5,81.09l75,75V6.09Zm17.25-1V80c0-.23,0-.46,0-.69a27,27,0,0,1,27-26.24q.5,0,1,0c.21,0,.43,0,.64,0a21.75,21.75,0,0,1,2.43.26l.13,0,.19,0,.56.1.41.08q.33.06.66.15a0,0,0,0,1,0,0,.08.08,0,0,1,.07,0l.09,0h0a4.54,4.54,0,0,1,.5.12c.37.09.74.19,1.09.31l.44.14.45.15a.34.34,0,0,1,.14.05,4.18,4.18,0,0,1,.56.2.9.9,0,0,1,.21.08l.74.29.26.11q1,.43,2,1l.63.35a1.19,1.19,0,0,1,.22.12,1,1,0,0,1,.17.1,2.5,2.5,0,0,1,.35.21c.37.22.74.46,1.1.7s.56.39.84.6l.3.23a21.68,21.68,0,0,1,2.15,1.81,1.45,1.45,0,0,1,.22.21,1.7,1.7,0,0,1,.24.23c.14.13.28.27.41.41s.48.49.71.75.45.5.67.76l0,0,.35.43.35.45c.18.23.35.46.52.7.38.51.73,1,1.07,1.59l.07.12.17.29c.18.29.34.58.5.88l.08.16q.22.41.42.81c.05.09.09.19.14.29a.59.59,0,0,1,.06.14,1.59,1.59,0,0,1,.12.27,4.54,4.54,0,0,1,.21.45c.06.12.11.24.16.37s.2.49.29.74.27.73.39,1.1c0,.13.09.26.13.4l.12.41a.06.06,0,0,1,0,0,4.24,4.24,0,0,1,.17.61,3.45,3.45,0,0,1,.12.43c.07.27.13.54.19.82,0,.12.06.24.08.37s.08.4.11.6a1.57,1.57,0,0,1,.05.3.13.13,0,0,1,0,.06,1.06,1.06,0,0,1,0,.19c.05.28.09.57.12.86a0,0,0,0,1,0,0c.08.52.13,1,.16,1.57l0,.51c0,.2,0,.41,0,.61s0,.46,0,.69v.07c0,.23,0,.46,0,.69a27,27,0,0,1-54-.76Z"/></g><polygon class="cls-18" points="534 160.53 535.48 160.53 534 159.11 534 160.53"/><g class="cls-4"><polygon class="cls-19" points="612 234.11 612 387.11 459 387.11 384 309.11 534 309.11 534 159.11 612 234.11"/></g><polygon class="cls-18" points="76.52 160.53 78 160.53 78 159.11 76.52 160.53"/><g class="cls-4"><polygon class="cls-19" points="228 309.11 153 387.11 0 387.11 0 234.11 78 159.11 78 309.11 228 309.11"/></g><text class="cls-17" transform="translate(474.48 72.72)">S</text><text class="cls-17" transform="translate(480.45 72.72)">culp</text><text class="cls-17" transform="translate(502.1 72.72)">t</text><text class="cls-17" transform="translate(506.01 72.72)">or </text><text class="cls-17" transform="translate(490.45 87.12)">of</text><text class="cls-17" transform="translate(465.43 101.52)"> </text><text class="cls-17" transform="translate(467.97 101.52)">P</text><text class="cls-17" transform="translate(474.07 101.52)">erspe</text><text class="cls-17" transform="translate(501.6 101.52)">c</text><text class="cls-17" transform="translate(507.13 101.52)">ti</text><text class="cls-17" transform="translate(513.91 101.52)">v</text><text class="cls-17" transform="translate(519.57 101.52)">e</text><g class="cls-4"><path class="cls-20" d="M194.89,52.72a27,27,0,0,0-26.24,27.05v1a.88.88,0,0,0,0,.23,4.34,4.34,0,0,0,0,.51.06.06,0,0,0,0,.06,3.7,3.7,0,0,0,.08.94c.08.31.08.76.14,1.14s.16,1,.26,1.46q.06.33.15.66a.09.09,0,0,0,0,.07.11.11,0,0,0,0,.08,4.05,4.05,0,0,0,.12.5c.08.32.16.62.26.93a.43.43,0,0,0,.05.16,1.5,1.5,0,0,0,.14.44,16.11,16.11,0,0,0,.69,1.89c.09.23.18.45.28.67l.3.66c.08.17.16.34.25.5a23.94,23.94,0,0,0,1.78,3c.11.16.22.33.34.49s.26.38.4.56.18.25.28.37c.2.27.41.54.63.8v.07c.2.24.41.49.63.73s.57.62.86.92.46.46.7.68q.58.57,1.2,1.08l.48.39a3.48,3.48,0,0,0,.48.38l.7.52c.17.13.33.24.5.35l.23.16c.24.17.49.33.74.48s.42.26.64.38a14.66,14.66,0,0,0,1.57.85c.33.17.67.33,1,.48l.71.31.71.28c.36.14.73.27,1.1.39l.4.13a2.77,2.77,0,0,0,.41.12H188c.27.09.55.16.83.23.48.13,1,.24,1.46.33h.15l.61.11a5.07,5.07,0,0,0,.54.09,3.31,3.31,0,0,0,.55.07,26.82,26.82,0,0,0,2.69.2h1.45a27,27,0,0,0-.76-54h-.07Z"/><path class="cls-16" d="M194.89,52.72a27,27,0,0,0-26.24,27.05v1a.88.88,0,0,0,0,.23,4.34,4.34,0,0,0,0,.51.06.06,0,0,0,0,.06,3.7,3.7,0,0,0,.08.94c.08.31.08.76.14,1.14s.16,1,.26,1.46q.06.33.15.66a.09.09,0,0,0,0,.07.11.11,0,0,0,0,.08,4.05,4.05,0,0,0,.12.5c.08.32.16.62.26.93a.43.43,0,0,0,.05.16,1.5,1.5,0,0,0,.14.44,16.11,16.11,0,0,0,.69,1.89c.09.23.18.45.28.67l.3.66c.08.17.16.34.25.5a23.94,23.94,0,0,0,1.78,3c.11.16.22.33.34.49s.26.38.4.56.18.25.28.37c.2.27.41.54.63.8v.07c.2.24.41.49.63.73s.57.62.86.92.46.46.7.68q.58.57,1.2,1.08l.48.39a3.48,3.48,0,0,0,.48.38l.7.52c.17.13.33.24.5.35l.23.16c.24.17.49.33.74.48s.42.26.64.38a14.66,14.66,0,0,0,1.57.85c.33.17.67.33,1,.48l.71.31.71.28c.36.14.73.27,1.1.39l.4.13a2.77,2.77,0,0,0,.41.12H188c.27.09.55.16.83.23.48.13,1,.24,1.46.33h.15l.61.11a5.07,5.07,0,0,0,.54.09,3.31,3.31,0,0,0,.55.07,26.82,26.82,0,0,0,2.69.2h1.45a27,27,0,0,0-.76-54h-.07Z"/><path class="cls-20" d="M194.89,52.72a27,27,0,0,0-26.24,27.05v1a.88.88,0,0,0,0,.23,4.34,4.34,0,0,0,0,.51.06.06,0,0,0,0,.06,3.7,3.7,0,0,0,.08.94c.08.31.08.76.14,1.14s.16,1,.26,1.46q.06.33.15.66a.09.09,0,0,0,0,.07.11.11,0,0,0,0,.08,4.05,4.05,0,0,0,.12.5c.08.32.16.62.26.93a.43.43,0,0,0,.05.16,1.5,1.5,0,0,0,.14.44,16.11,16.11,0,0,0,.69,1.89c.09.23.18.45.28.67l.3.66c.08.17.16.34.25.5a23.94,23.94,0,0,0,1.78,3c.11.16.22.33.34.49s.26.38.4.56.18.25.28.37c.2.27.41.54.63.8v.07c.2.24.41.49.63.73s.57.62.86.92.46.46.7.68q.58.57,1.2,1.08l.48.39a3.48,3.48,0,0,0,.48.38l.7.52c.17.13.33.24.5.35l.23.16c.24.17.49.33.74.48s.42.26.64.38a14.66,14.66,0,0,0,1.57.85c.33.17.67.33,1,.48l.71.31.71.28c.36.14.73.27,1.1.39l.4.13a2.77,2.77,0,0,0,.41.12H188c.27.09.55.16.83.23.48.13,1,.24,1.46.33h.15l.61.11a5.07,5.07,0,0,0,.54.09,3.31,3.31,0,0,0,.55.07,26.82,26.82,0,0,0,2.69.2h1.45a27,27,0,0,0-.76-54h-.07Z"/><path class="cls-16" d="M194.89,52.72a27,27,0,0,0-26.24,27.05v1a.88.88,0,0,0,0,.23,4.34,4.34,0,0,0,0,.51.06.06,0,0,0,0,.06,3.7,3.7,0,0,0,.08.94c.08.31.08.76.14,1.14s.16,1,.26,1.46q.06.33.15.66a.09.09,0,0,0,0,.07.11.11,0,0,0,0,.08,4.05,4.05,0,0,0,.12.5c.08.32.16.62.26.93a.43.43,0,0,0,.05.16,1.5,1.5,0,0,0,.14.44,16.11,16.11,0,0,0,.69,1.89c.09.23.18.45.28.67l.3.66c.08.17.16.34.25.5a23.94,23.94,0,0,0,1.78,3c.11.16.22.33.34.49s.26.38.4.56.18.25.28.37c.2.27.41.54.63.8v.07c.2.24.41.49.63.73s.57.62.86.92.46.46.7.68q.58.57,1.2,1.08l.48.39a3.48,3.48,0,0,0,.48.38l.7.52c.17.13.33.24.5.35l.23.16c.24.17.49.33.74.48s.42.26.64.38a14.66,14.66,0,0,0,1.57.85c.33.17.67.33,1,.48l.71.31.71.28c.36.14.73.27,1.1.39l.4.13a2.77,2.77,0,0,0,.41.12H188c.27.09.55.16.83.23.48.13,1,.24,1.46.33h.15l.61.11a5.07,5.07,0,0,0,.54.09,3.31,3.31,0,0,0,.55.07,26.82,26.82,0,0,0,2.69.2h1.45a27,27,0,0,0-.76-54h-.07Z"/><path class="cls-21" d="M194.89,52.72a27,27,0,0,0-26.24,27.05v1a.88.88,0,0,0,0,.23,4.34,4.34,0,0,0,0,.51.06.06,0,0,0,0,.06,3.7,3.7,0,0,0,.08.94c.08.31.08.76.14,1.14s.16,1,.26,1.46q.06.33.15.66a.09.09,0,0,0,0,.07.11.11,0,0,0,0,.08,4.05,4.05,0,0,0,.12.5c.08.32.16.62.26.93a.43.43,0,0,0,.05.16,1.5,1.5,0,0,0,.14.44,16.11,16.11,0,0,0,.69,1.89c.09.23.18.45.28.67l.3.66c.08.17.16.34.25.5a23.94,23.94,0,0,0,1.78,3c.11.16.22.33.34.49s.26.38.4.56.18.25.28.37c.2.27.41.54.63.8v.07c.2.24.41.49.63.73s.57.62.86.92.46.46.7.68q.58.57,1.2,1.08l.48.39a3.48,3.48,0,0,0,.48.38l.7.52c.17.13.33.24.5.35l.23.16c.24.17.49.33.74.48s.42.26.64.38a14.66,14.66,0,0,0,1.57.85c.33.17.67.33,1,.48l.71.31.71.28c.36.14.73.27,1.1.39l.4.13a2.77,2.77,0,0,0,.41.12H188c.27.09.55.16.83.23.48.13,1,.24,1.46.33h.15l.61.11a5.07,5.07,0,0,0,.54.09,3.31,3.31,0,0,0,.55.07,26.82,26.82,0,0,0,2.69.2h1.45a27,27,0,0,0-.76-54h-.07Z"/><line class="cls-21" x1="168.65" y1="79.77" x2="222.65" y2="79.62"/><line class="cls-21" x1="195.58" y1="52.69" x2="195.65" y2="79.69"/><path class="cls-21" d="M195.58,52.7h.07a13.5,13.5,0,0,1,0,27h-.08a13.5,13.5,0,0,1-.72-27Z"/><path class="cls-21" d="M195.61,79.7h.08a13.5,13.5,0,0,1,.72,27h-.76a13.5,13.5,0,0,1,0-27Z"/><path class="cls-21" d="M195.58,52.7h.07a27,27,0,0,1,.76,54h-.76a27,27,0,1,1-.76-54Z"/><line class="cls-21" x1="168.65" y1="79.77" x2="222.65" y2="79.62"/><line class="cls-21" x1="195.58" y1="52.69" x2="195.65" y2="79.69"/><path class="cls-21" d="M195.61,79.7h.08a13.5,13.5,0,0,1,.72,27h-.76a13.5,13.5,0,0,1,0-27Z"/><path class="cls-22" d="M186.15,106V99.19a10.79,10.79,0,0,0,7.2,2.94c4.11,0,7.42-2.74,7.41-7,0-12.39-21.92-13.58-22-29.09C178.76,56.31,187,51,196.2,51c8.14,0,16.29,5.1,16.31,13.75,0,4.67-2.66,8.34-6.84,10.46l-3.8-4c2.52-1.34,4.41-3.21,4.4-6.33,0-5.53-4.84-8.48-10-8.47-5.77,0-11.29,3.38-11.27,9.7,0,11.68,21.76,13.73,21.8,29.08,0,7.79-5.81,12.64-13.4,12.66a12.91,12.91,0,0,1-7.25-1.85"/><g class="cls-2"><g class="cls-23"><g class="cls-24"><text class="cls-25" transform="translate(196.04 71.01) rotate(-0.15)">o</text></g></g></g><g class="cls-2"><g class="cls-26"><g class="cls-27"><text class="cls-28" transform="matrix(1, 0, 0, 1, 186.53, 96.83)">a</text></g></g></g><path class="cls-20" d="M414.15,52.72a27,27,0,0,0-26.24,27.05v1a.88.88,0,0,0,0,.23,4.34,4.34,0,0,0,0,.51.06.06,0,0,0,0,.06,3.7,3.7,0,0,0,.08.94c.08.31.08.76.14,1.14s.16,1,.26,1.46q.06.33.15.66a.09.09,0,0,0,0,.07v.08a4.05,4.05,0,0,0,.12.5c.08.32.16.62.26.93a.75.75,0,0,0,.05.16,1.5,1.5,0,0,0,.14.44,16.11,16.11,0,0,0,.69,1.89c.09.23.18.45.28.67l.3.66c.08.17.16.34.25.5a25.23,25.23,0,0,0,1.78,3c.11.16.22.33.34.49s.26.38.4.56.18.25.28.37c.2.27.41.54.63.8v.07c.2.24.41.49.63.73s.57.62.86.92.46.46.7.68c.39.38.8.74,1.2,1.08l.48.39a3.48,3.48,0,0,0,.48.38l.7.52c.17.13.33.24.5.35l.23.16c.24.17.49.33.74.48s.42.26.64.38a14.66,14.66,0,0,0,1.57.85c.33.17.67.33,1,.48l.71.31.71.28c.36.14.73.27,1.1.39l.4.13a2.77,2.77,0,0,0,.41.12h.15c.27.09.55.16.83.23.48.13,1,.24,1.46.33h.15l.61.11a5.07,5.07,0,0,0,.54.09,3.45,3.45,0,0,0,.55.07,26.82,26.82,0,0,0,2.69.2h1.45a27,27,0,0,0-.76-54h-.07Z"/><path class="cls-16" d="M414.15,52.72a27,27,0,0,0-26.24,27.05v1a.88.88,0,0,0,0,.23,4.34,4.34,0,0,0,0,.51.06.06,0,0,0,0,.06,3.7,3.7,0,0,0,.08.94c.08.31.08.76.14,1.14s.16,1,.26,1.46q.06.33.15.66a.09.09,0,0,0,0,.07v.08a4.05,4.05,0,0,0,.12.5c.08.32.16.62.26.93a.75.75,0,0,0,.05.16,1.5,1.5,0,0,0,.14.44,16.11,16.11,0,0,0,.69,1.89c.09.23.18.45.28.67l.3.66c.08.17.16.34.25.5a25.23,25.23,0,0,0,1.78,3c.11.16.22.33.34.49s.26.38.4.56.18.25.28.37c.2.27.41.54.63.8v.07c.2.24.41.49.63.73s.57.62.86.92.46.46.7.68c.39.38.8.74,1.2,1.08l.48.39a3.48,3.48,0,0,0,.48.38l.7.52c.17.13.33.24.5.35l.23.16c.24.17.49.33.74.48s.42.26.64.38a14.66,14.66,0,0,0,1.57.85c.33.17.67.33,1,.48l.71.31.71.28c.36.14.73.27,1.1.39l.4.13a2.77,2.77,0,0,0,.41.12h.15c.27.09.55.16.83.23.48.13,1,.24,1.46.33h.15l.61.11a5.07,5.07,0,0,0,.54.09,3.45,3.45,0,0,0,.55.07,26.82,26.82,0,0,0,2.69.2h1.45a27,27,0,0,0-.76-54h-.07Z"/><path class="cls-20" d="M414.15,52.72a27,27,0,0,0-26.24,27.05v1a.88.88,0,0,0,0,.23,4.34,4.34,0,0,0,0,.51.06.06,0,0,0,0,.06,3.7,3.7,0,0,0,.08.94c.08.31.08.76.14,1.14s.16,1,.26,1.46q.06.33.15.66a.09.09,0,0,0,0,.07v.08a4.05,4.05,0,0,0,.12.5c.08.32.16.62.26.93a.75.75,0,0,0,.05.16,1.5,1.5,0,0,0,.14.44,16.11,16.11,0,0,0,.69,1.89c.09.23.18.45.28.67l.3.66c.08.17.16.34.25.5a25.23,25.23,0,0,0,1.78,3c.11.16.22.33.34.49s.26.38.4.56.18.25.28.37c.2.27.41.54.63.8v.07c.2.24.41.49.63.73s.57.62.86.92.46.46.7.68c.39.38.8.74,1.2,1.08l.48.39a3.48,3.48,0,0,0,.48.38l.7.52c.17.13.33.24.5.35l.23.16c.24.17.49.33.74.48s.42.26.64.38a14.66,14.66,0,0,0,1.57.85c.33.17.67.33,1,.48l.71.31.71.28c.36.14.73.27,1.1.39l.4.13a2.77,2.77,0,0,0,.41.12h.15c.27.09.55.16.83.23.48.13,1,.24,1.46.33h.15l.61.11a5.07,5.07,0,0,0,.54.09,3.45,3.45,0,0,0,.55.07,26.82,26.82,0,0,0,2.69.2h1.45a27,27,0,0,0-.76-54h-.07Z"/><path class="cls-16" d="M414.15,52.72a27,27,0,0,0-26.24,27.05v1a.88.88,0,0,0,0,.23,4.34,4.34,0,0,0,0,.51.06.06,0,0,0,0,.06,3.7,3.7,0,0,0,.08.94c.08.31.08.76.14,1.14s.16,1,.26,1.46q.06.33.15.66a.09.09,0,0,0,0,.07v.08a4.05,4.05,0,0,0,.12.5c.08.32.16.62.26.93a.75.75,0,0,0,.05.16,1.5,1.5,0,0,0,.14.44,16.11,16.11,0,0,0,.69,1.89c.09.23.18.45.28.67l.3.66c.08.17.16.34.25.5a25.23,25.23,0,0,0,1.78,3c.11.16.22.33.34.49s.26.38.4.56.18.25.28.37c.2.27.41.54.63.8v.07c.2.24.41.49.63.73s.57.62.86.92.46.46.7.68c.39.38.8.74,1.2,1.08l.48.39a3.48,3.48,0,0,0,.48.38l.7.52c.17.13.33.24.5.35l.23.16c.24.17.49.33.74.48s.42.26.64.38a14.66,14.66,0,0,0,1.57.85c.33.17.67.33,1,.48l.71.31.71.28c.36.14.73.27,1.1.39l.4.13a2.77,2.77,0,0,0,.41.12h.15c.27.09.55.16.83.23.48.13,1,.24,1.46.33h.15l.61.11a5.07,5.07,0,0,0,.54.09,3.45,3.45,0,0,0,.55.07,26.82,26.82,0,0,0,2.69.2h1.45a27,27,0,0,0-.76-54h-.07Z"/><path class="cls-21" d="M414.15,52.72a27,27,0,0,0-26.24,27.05v1a.88.88,0,0,0,0,.23,4.34,4.34,0,0,0,0,.51.06.06,0,0,0,0,.06,3.7,3.7,0,0,0,.08.94c.08.31.08.76.14,1.14s.16,1,.26,1.46q.06.33.15.66a.09.09,0,0,0,0,.07v.08a4.05,4.05,0,0,0,.12.5c.08.32.16.62.26.93a.75.75,0,0,0,.05.16,1.5,1.5,0,0,0,.14.44,16.11,16.11,0,0,0,.69,1.89c.09.23.18.45.28.67l.3.66c.08.17.16.34.25.5a25.23,25.23,0,0,0,1.78,3c.11.16.22.33.34.49s.26.38.4.56.18.25.28.37c.2.27.41.54.63.8v.07c.2.24.41.49.63.73s.57.62.86.92.46.46.7.68c.39.38.8.74,1.2,1.08l.48.39a3.48,3.48,0,0,0,.48.38l.7.52c.17.13.33.24.5.35l.23.16c.24.17.49.33.74.48s.42.26.64.38a14.66,14.66,0,0,0,1.57.85c.33.17.67.33,1,.48l.71.31.71.28c.36.14.73.27,1.1.39l.4.13a2.77,2.77,0,0,0,.41.12h.15c.27.09.55.16.83.23.48.13,1,.24,1.46.33h.15l.61.11a5.07,5.07,0,0,0,.54.09,3.45,3.45,0,0,0,.55.07,26.82,26.82,0,0,0,2.69.2h1.45a27,27,0,0,0-.76-54h-.07Z"/><line class="cls-21" x1="387.91" y1="79.77" x2="441.91" y2="79.62"/><line class="cls-21" x1="414.84" y1="52.69" x2="414.91" y2="79.69"/><path class="cls-21" d="M414.84,52.7h.07a13.5,13.5,0,0,1,0,27h-.08a13.5,13.5,0,1,1-.72-27Z"/><path class="cls-21" d="M414.87,79.7H415a13.5,13.5,0,0,1,.72,27h-.76a13.5,13.5,0,0,1,0-27Z"/><path class="cls-21" d="M414.84,52.7h.07a27,27,0,0,1,.76,54h-.76a27,27,0,1,1-.76-54Z"/><line class="cls-21" x1="387.91" y1="79.77" x2="441.91" y2="79.62"/><line class="cls-21" x1="414.84" y1="52.69" x2="414.91" y2="79.69"/><path class="cls-21" d="M414.87,79.7H415a13.5,13.5,0,0,1,.72,27h-.76a13.5,13.5,0,0,1,0-27Z"/><path class="cls-22" d="M405.41,106V99.19a10.79,10.79,0,0,0,7.2,2.94c4.11,0,7.42-2.74,7.41-7C420,82.74,398.1,81.55,398,66c0-9.73,8.2-15.07,17.44-15.07,8.14,0,16.29,5.1,16.31,13.75,0,4.67-2.66,8.34-6.84,10.46l-3.8-4c2.52-1.34,4.41-3.21,4.4-6.33,0-5.53-4.84-8.48-10-8.47-5.77,0-11.29,3.38-11.27,9.7,0,11.68,21.76,13.73,21.8,29.08,0,7.79-5.81,12.64-13.4,12.66a13,13,0,0,1-7.25-1.85"/><g class="cls-2"><g class="cls-29"><g class="cls-30"><text class="cls-25" transform="translate(415.3 71.01) rotate(-0.15)">o</text></g></g></g><g class="cls-2"><g class="cls-31"><g class="cls-32"><text class="cls-28" transform="matrix(1, 0, 0, 1, 405.79, 96.83)">a</text></g></g></g></g><line class="cls-15" y1="1.38" x2="612" y2="1.38"/><line class="cls-15" x1="-1.02" y1="160.53" x2="610.98" y2="160.53"/><line class="cls-15" y1="1.38" x2="-1.02" y2="160.53"/><line class="cls-15" x1="610.98" y1="160.53" x2="612" y2="1.38"/><rect class="cls-1" y="1.38" width="612" height="159.15"/></g></g></svg>